<svg width="33" height="42" viewBox="0 0 33 42" fill="none" xmlns="http://www.w3.org/2000/svg">
<g clip-path="url(#clip0_1_2)">
<path d="M0.963869 6.05208V10.0875C0.963869 21.3032 0.985039 29.0488 7.4801 35.5699C9.98192 38.0829 16.0898 42.2003 16.0898 42.2003V2.31146C9.73689 2.31146 3.38401 5.16175 0.963869 6.05208Z" fill="#66BB6A"/>
<path d="M31.2164 6.00042C28.1912 5.05843 22.4434 2.31146 16.0905 2.31146V42.1972C16.0905 42.1972 22.2256 38.0829 24.7304 35.5668C31.2376 29.0306 31.2164 22.1662 31.2164 11.5825V6.00042Z" fill="#388E3C"/>
<path d="M32.5319 6.04688H-0.200567V8.75131H32.5319V6.04688Z" fill="url(#paint0_linear_1_2)"/>
<path fill-rule="evenodd" clip-rule="evenodd" d="M24.6216 28.3692C23.5342 27.3082 22.2516 26.4575 20.8371 25.8689C19.3492 25.2499 17.7604 24.9397 16.1653 24.9478C15.3999 24.9516 14.6331 25.0287 13.8753 25.1802C11.5773 25.6393 9.46326 26.7613 7.79128 28.4076C8.10093 28.8886 8.44837 29.3585 8.83821 29.8187C9.33835 29.3032 9.89304 28.839 10.4948 28.4351C12.1744 27.3078 14.1461 26.7009 16.1653 26.689C16.1855 26.6888 16.2057 26.6888 16.226 26.6888V26.6918C18.9604 26.695 21.582 27.7873 23.5158 29.7292C23.5309 29.7443 23.5458 29.7595 23.5608 29.7747C23.9575 29.3115 24.3094 28.8439 24.6216 28.3692ZM22.2591 31.126C21.4658 30.311 20.5131 29.6611 19.4548 29.2208C18.4073 28.7849 17.2883 28.5678 16.1653 28.5759C15.6354 28.5797 15.1046 28.6337 14.58 28.7385C12.9433 29.0655 11.44 29.8727 10.26 31.0579C10.2213 31.0967 10.183 31.1359 10.1452 31.1755C10.5069 31.5035 10.9483 31.8641 11.4261 32.2329C11.7394 31.918 12.0841 31.6332 12.4562 31.3835C13.5552 30.6458 14.8444 30.2469 16.1653 30.2351C16.1855 30.2349 16.2058 30.2348 16.226 30.2348C18.0041 30.2372 19.7096 30.9396 20.9772 32.1897C21.4586 31.8175 21.9009 31.4546 22.2591 31.126ZM19.5025 33.2796C18.6326 32.4986 17.4845 32.0239 16.226 32.0239C16.2057 32.0239 16.1855 32.024 16.1653 32.0243C14.9072 32.0396 13.7629 32.5292 12.9012 33.3234C14.5669 34.5114 16.1653 35.5328 16.1653 35.5328V32.0243L16.1653 35.5307C16.1653 35.5307 17.8094 34.4855 19.5025 33.2796Z" fill="#FAFAFA"/>
<path d="M15.9906 22.0754C18.744 22.0754 20.9761 19.8334 20.9761 17.0677C20.9761 14.302 18.744 12.0599 15.9906 12.0599C13.2372 12.0599 11.0051 14.302 11.0051 17.0677C11.0051 19.8334 13.2372 22.0754 15.9906 22.0754Z" fill="#FAFAFA"/>
<path d="M31.2159 5.86446V2.765C31.2159 1.64981 29.6821 0.0909595 28.3117 0.0909595H3.61714C2.24976 0.0909595 0.967098 1.64981 0.967098 2.765V5.86446H31.2189H31.2159Z" fill="#E0E0E0"/>
<path d="M4.69727 4.23195C5.18847 4.23195 5.58667 3.83197 5.58667 3.33857C5.58667 2.84517 5.18847 2.4452 4.69727 2.4452C4.20606 2.4452 3.80786 2.84517 3.80786 3.33857C3.80786 3.83197 4.20606 4.23195 4.69727 4.23195Z" fill="white"/>
<path d="M7.95262 4.23195C8.44382 4.23195 8.84202 3.83197 8.84202 3.33857C8.84202 2.84517 8.44382 2.4452 7.95262 2.4452C7.46142 2.4452 7.06322 2.84517 7.06322 3.33857C7.06322 3.83197 7.46142 4.23195 7.95262 4.23195Z" fill="white"/>
</g>
<defs>
<linearGradient id="paint0_linear_1_2" x1="16.1657" y1="5.62147" x2="16.1657" y2="7.8549" gradientUnits="userSpaceOnUse">
<stop stop-color="#263238" stop-opacity="0.35"/>
<stop offset="0.42" stop-color="#263238" stop-opacity="0.15"/>
<stop offset="0.89" stop-color="#263238" stop-opacity="0.02"/>
<stop offset="1" stop-color="#263238" stop-opacity="0"/>
</linearGradient>
<clipPath id="clip0_1_2">
<rect width="33" height="42" fill="white"/>
</clipPath>
</defs>
</svg>
