<svg width="53" height="53" viewBox="0 0 53 53" fill="none" xmlns="http://www.w3.org/2000/svg">
<rect width="53" height="53" rx="10" fill="#77BE1D"/>
<path d="M35.2635 18.75C35.8083 18.75 36.25 19.1917 36.25 19.7365C36.25 20.0146 36.1327 20.2797 35.9269 20.4667L29.2936 26.4932C28.7199 27.0144 28.3929 27.7535 28.3929 28.5286V34C28.3929 34.6904 27.8332 35.25 27.1429 35.25H24.8571C24.1668 35.25 23.6071 34.6904 23.6071 34V28.5285C23.6071 27.7535 23.2801 27.0145 22.7066 26.4933L16.0727 20.4649C15.8672 20.2781 15.75 20.0133 15.75 19.7355C15.75 19.1912 16.1912 18.75 16.7355 18.75H35.2635Z" stroke="white" stroke-width="1.5"/>
</svg>
